<?xml version="1.0" encoding="utf-8"?>
<!-- Generator: Adobe Illustrator 23.0.1, SVG Export Plug-In . SVG Version: 6.00 Build 0)  -->
<svg version="1.1" id="Capa_1" xmlns="http://www.w3.org/2000/svg" xmlns:xlink="http://www.w3.org/1999/xlink" x="0px" y="0px"
	 viewBox="0 0 30 30" style="enable-background:new 0 0 30 30;" xml:space="preserve">
<style type="text/css">
	.st0{fill:#FF5555;}
</style>
<path class="st0" d="M20.3,0.8H9.7c-4.9,0-8.9,4-8.9,8.9v10.7c0,4.9,4,8.9,8.9,8.9h10.7c4.9,0,8.9-4,8.9-8.9V9.7
	C29.2,4.7,25.3,0.8,20.3,0.8z M26.6,20.3c0,3.4-2.8,6.2-6.2,6.2H9.7c-3.4,0-6.2-2.8-6.2-6.2V9.7c0-3.4,2.8-6.2,6.2-6.2h10.7
	c3.4,0,6.2,2.8,6.2,6.2C26.6,9.7,26.6,20.3,26.6,20.3z"/>
<path class="st0" d="M15,7.9c-3.9,0-7.1,3.2-7.1,7.1s3.2,7.1,7.1,7.1s7.1-3.2,7.1-7.1S18.9,7.9,15,7.9z M15,19.4
	c-2.5,0-4.4-2-4.4-4.4c0-2.5,2-4.4,4.4-4.4s4.4,2,4.4,4.4C19.4,17.5,17.5,19.4,15,19.4z"/>
<circle class="st0" cx="22.7" cy="7.3" r="0.9"/>
</svg>
