<svg xmlns="http://www.w3.org/2000/svg" viewBox="0 0 943.42 475.39"><defs><style>.cls-1{fill:#fff;}.cls-2{fill:#ff4d3a;}</style></defs><g id="Layer_2" data-name="Layer 2"><g id="Pegado"><path id="m" class="cls-1" d="M937.91,474.22v-43.3q0-16-9.37-16a9.67,9.67,0,0,0-9.29,5.6q-2.85,5.6-2.84,16.49v37.21H910.9v-43.3q0-8.09-2.29-12a7.61,7.61,0,0,0-7.09-4,9.62,9.62,0,0,0-9.2,5.74q-2.87,5.74-2.87,18.64v34.92h-5.56V410.64h4.68l.47,8.85h.53q3.81-10.08,12.95-10.08,5.28,0,8.32,2.82a16.08,16.08,0,0,1,4.39,8.2q2.29-5.87,5.63-8.44a13.8,13.8,0,0,1,8.67-2.58q7.22,0,10.55,5.54t3.34,17.72v41.55Z"/><path id="o" class="cls-1" d="M869.88,442.28q0,16.07-5.07,24.58t-14.5,8.53q-9.31,0-14.26-8.53t-5-24.58q0-32.86,19.46-32.87,9.13,0,14.24,8.62T869.88,442.28Zm-33,0q0,13.77,3.28,20.8t10.25,7q13.65,0,13.65-27.84,0-27.58-13.65-27.59-7.15,0-10.34,6.91T836.9,442.28Z"/><path id="o-2" data-name="o" class="cls-1" d="M820.08,442.28q0,16.07-5.07,24.58t-14.5,8.53q-9.32,0-14.27-8.53t-5-24.58q0-32.86,19.45-32.87,9.15,0,14.24,8.62T820.08,442.28Zm-33,0q0,13.77,3.28,20.8t10.26,7q13.65,0,13.65-27.84,0-27.58-13.65-27.59-7.15,0-10.35,6.91T787.09,442.28Z"/><path id="r" class="cls-1" d="M769.16,409.41a18.52,18.52,0,0,1,5.57.82l-1.35,5.57a11.11,11.11,0,0,0-4.34-.88c-2.14,0-4.15,1.11-6,3.31a23.77,23.77,0,0,0-4.37,9.23,50.78,50.78,0,0,0-1.58,13.07v33.69h-5.57V410.64h4.57l.59,11.14h.41Q761.54,409.42,769.16,409.41Z"/><path id="n" class="cls-1" d="M706.7,474.22V430.39q0-15.83-9.38-15.82-7.14,0-10.45,5.92t-3.31,18.81v34.92H678V410.64h4.69l.47,8.85h.52a16.62,16.62,0,0,1,5.74-7.44,13.7,13.7,0,0,1,8-2.64q7.38,0,11.08,4.95t3.69,15.91v44Z"/><path id="o-3" data-name="o" class="cls-1" d="M664,442.28q0,16.07-5.06,24.58t-14.51,8.53q-9.31,0-14.26-8.53t-5-24.58q0-32.86,19.46-32.87,9.14,0,14.24,8.62T664,442.28Zm-33,0q0,13.77,3.28,20.8t10.25,7q13.65,0,13.65-27.84,0-27.58-13.65-27.59-7.15,0-10.34,6.91T631,442.28Z"/><path id="i" class="cls-1" d="M604.8,393a6.78,6.78,0,0,1,1.09-4.1,3.31,3.31,0,0,1,2.78-1.47,2.85,2.85,0,0,1,2.52,1.47,7.52,7.52,0,0,1,.94,4.1,7.44,7.44,0,0,1-.94,4,2.83,2.83,0,0,1-2.52,1.49,3.28,3.28,0,0,1-2.78-1.49A6.71,6.71,0,0,1,604.8,393Zm6.39,81.21h-5.57V410.64h5.57Z"/><path id="t" class="cls-1" d="M591,470.23a13.71,13.71,0,0,0,4.57-.7v4.69a16.12,16.12,0,0,1-6.62,1.17q-9.85,0-9.85-14.71V415.57h-5.74v-3.29l5.62-1.64,1.82-15.11h3.87v15.11h10.08v4.93H584.65V459.1q0,6.45,1.4,8.79T591,470.23Z"/><path id="a" class="cls-1" d="M558,474.22l-.71-8.91h-.23q-4.57,10.08-13.83,10.08a12,12,0,0,1-10-4.95q-3.78-4.95-3.78-13.27,0-9.09,5.45-14.39T550.19,437l6.86-.35v-5.27q0-8.91-2.23-13t-7.38-4.08a20.91,20.91,0,0,0-11.13,3.58l-2.4-4.4a26,26,0,0,1,13.88-4.1q7.86,0,11.31,4.95t3.46,16.56v43.3Zm-13.54-3.58q6,0,9.29-5.89t3.31-16.67v-6.62l-6.62.36q-7.68.4-11.4,4.24t-3.72,11.22q0,6.92,2.46,10.14A8,8,0,0,0,544.45,470.64Z"/><path id="e" class="cls-1" d="M504.37,475.39a17.29,17.29,0,0,1-15.49-8.58q-5.43-8.6-5.42-23.94,0-16.29,4.83-24.87t13.92-8.59q7.91,0,12.48,7.53t4.57,20.31v5.15H489.14q.12,13.89,3.93,20.8a12.37,12.37,0,0,0,11.54,6.92q6,0,12.6-3.93v5.39A23.85,23.85,0,0,1,504.37,475.39Zm-2.52-60.94q-11.48,0-12.59,22.91h24.43q0-10.49-3.19-16.7T501.85,414.45Z"/><path id="r-2" data-name="r" class="cls-1" d="M471.21,409.41a18.52,18.52,0,0,1,5.57.82l-1.35,5.57a11.11,11.11,0,0,0-4.34-.88c-2.15,0-4.15,1.11-6,3.31a23.77,23.77,0,0,0-4.37,9.23,50.78,50.78,0,0,0-1.58,13.07v33.69h-5.57V410.64h4.57l.59,11.14h.41Q463.6,409.42,471.21,409.41Z"/><path id="c" class="cls-1" d="M432.71,475.39a15.63,15.63,0,0,1-14.38-8.29q-4.83-8.3-4.83-24.35,0-16.29,4.89-24.81t14.44-8.53a20.25,20.25,0,0,1,9.85,2.17l-2.17,4.92a17.35,17.35,0,0,0-7.21-1.81q-14,0-14,27.95,0,27.71,14,27.71a25.19,25.19,0,0,0,9-1.87v4.68a17,17,0,0,1-4.74,1.64A24.5,24.5,0,0,1,432.71,475.39Z"/><path id="e-2" data-name="e" class="cls-1" d="M387.36,475.39a17.27,17.27,0,0,1-15.49-8.58q-5.43-8.6-5.42-23.94,0-16.29,4.83-24.87t13.92-8.59q7.91,0,12.48,7.53t4.57,20.31v5.15H372.13q.12,13.89,3.92,20.8a12.39,12.39,0,0,0,11.55,6.92q6,0,12.6-3.93v5.39A23.88,23.88,0,0,1,387.36,475.39Zm-2.52-60.94q-11.47,0-12.59,22.91h24.43q0-10.49-3.19-16.7T384.84,414.45Z"/><path id="r-3" data-name="r" class="cls-1" d="M354.2,409.41a18.52,18.52,0,0,1,5.57.82l-1.35,5.57a11.11,11.11,0,0,0-4.34-.88c-2.15,0-4.15,1.11-6,3.31a23.77,23.77,0,0,0-4.37,9.23,50.78,50.78,0,0,0-1.58,13.07v33.69h-5.57V410.64h4.57l.59,11.14h.41Q346.59,409.42,354.2,409.41Z"/><path id="r-4" data-name="r" class="cls-1" d="M298.89,409.41a18.45,18.45,0,0,1,5.56.82l-1.34,5.57a11.15,11.15,0,0,0-4.34-.88c-2.15,0-4.15,1.11-6,3.31a23.77,23.77,0,0,0-4.36,9.23,50.34,50.34,0,0,0-1.58,13.07v33.69h-5.57V410.64h4.57l.59,11.14h.41Q291.26,409.42,298.89,409.41Z"/><path id="e-3" data-name="e" class="cls-1" d="M252.25,475.39a17.29,17.29,0,0,1-15.5-8.58q-5.43-8.6-5.42-23.94,0-16.29,4.83-24.87t13.92-8.59q7.91,0,12.48,7.53t4.57,20.31v5.15H237q.12,13.89,3.93,20.8a12.38,12.38,0,0,0,11.54,6.92q6,0,12.6-3.93v5.39A23.82,23.82,0,0,1,252.25,475.39Zm-2.52-60.94q-11.49,0-12.6,22.91h24.43q0-10.49-3.19-16.7T249.73,414.45Z"/><path id="h" class="cls-1" d="M211.93,474.22V430.39q0-8.61-2.25-12.22t-7.36-3.6a11,11,0,0,0-10.13,6q-3.41,6-3.4,18.86v34.81h-5.57V383.05h5.57v29.59c0,2.69-.08,4.94-.24,6.73H189a15.66,15.66,0,0,1,5.66-7.35,13.66,13.66,0,0,1,7.88-2.61q8.08,0,11.48,5.28t3.4,15.7v43.83Z"/><path id="t-2" data-name="t" class="cls-1" d="M168.57,470.23a13.63,13.63,0,0,0,4.57-.7v4.69a16.06,16.06,0,0,1-6.62,1.17q-9.84,0-9.84-14.71V415.57h-5.74v-3.29l5.62-1.64,1.82-15.11h3.87v15.11h10.07v4.93H162.25V459.1c0,4.3.46,7.23,1.4,8.79S166.23,470.23,168.57,470.23Z"/><path id="o-4" data-name="o" class="cls-1" d="M142.91,442.28q0,16.07-5.07,24.58t-14.5,8.53q-9.32,0-14.27-8.53t-4.95-24.58q0-32.86,19.45-32.87,9.15,0,14.24,8.62T142.91,442.28Zm-33,0q0,13.77,3.28,20.8t10.26,7q13.65,0,13.65-27.84,0-27.58-13.65-27.59-7.15,0-10.34,6.91T109.92,442.28Z"/><path id="n-2" data-name="n" class="cls-1" d="M84.84,474.22V430.39q0-15.83-9.37-15.82-7.16,0-10.46,5.92T61.7,439.3v34.92H56.13V410.64h4.69l.47,8.85h.53a16.55,16.55,0,0,1,5.74-7.44,13.68,13.68,0,0,1,8-2.64q7.38,0,11.07,4.95t3.69,15.91v44Z"/><path id="A-2" data-name="A" class="cls-1" d="M41.78,474.22l-7.56-31.06H13.42L6,474.22H0l20.63-85.67h5.91l21.1,85.67Zm-8.91-36.86-7.56-31.93c-.78-3.6-1.38-7-1.81-10.2a94.89,94.89,0,0,1-1.64,10.2l-7.33,31.93Z"/><path id="o-5" data-name="o" class="cls-2" d="M732.22,188.19a77.46,77.46,0,0,1,10.57-39.95,80,80,0,0,1,138.26.2,77.77,77.77,0,0,1,10.58,39.75,76.37,76.37,0,0,1-10.58,39.75,79.42,79.42,0,0,1-28.59,28.4q-18,10.57-40.73,10.58-22.34,0-40.35-10.19a76.84,76.84,0,0,1-28.59-27.81Q732.22,211.3,732.22,188.19Zm13.32,0q0,19.2,8.81,34.27a66.86,66.86,0,0,0,23.89,24.09,64,64,0,0,0,33.49,9,63,63,0,0,0,33.29-9,69.14,69.14,0,0,0,23.89-24.09q9-15.08,9-34.27a65.13,65.13,0,0,0-9-33.68A70.36,70.36,0,0,0,845,130a62,62,0,0,0-33.29-9.21,60.9,60.9,0,0,0-33.88,9.79,71.31,71.31,0,0,0-23.7,25.07A65.07,65.07,0,0,0,745.54,188.19Z"/><path id="g" class="cls-2" d="M605.28,337.42a94.48,94.48,0,0,1-22.52-2.74,87.61,87.61,0,0,1-22.71-9.4c-7.71-4.45-11.29-10.71-19.64-18.8l7.83-9c12,11.48,18.52,19,28.45,22.52s19.19,5.29,27.81,5.29q25.46,0,40-8c9.66-5.36,21-12.48,25-21.35a79.8,79.8,0,0,0,6.85-29.38l.39-51.7,3.53,3.53q-8.24,21.54-28.4,35.05a79.47,79.47,0,0,1-45.24,13.52,73.94,73.94,0,0,1-38.77-10.58,80.42,80.42,0,0,1-28.2-28.4,76.37,76.37,0,0,1-10.58-39.75q0-23.1,10.77-40.93a76,76,0,0,1,29-27.81,82.07,82.07,0,0,1,40.14-10,76.26,76.26,0,0,1,41.52,12.15q19.18,12.13,27.81,31.33l-2,6.27,2-38.39h11.36v146.1A80.27,80.27,0,0,1,682.2,301c-5,10.71-17.77,19.45-29.52,26.24S625.12,337.42,605.28,337.42ZM542.37,188.19a65.82,65.82,0,0,0,9,34.08,67.59,67.59,0,0,0,24.28,24.28,65,65,0,0,0,33.68,9,66.41,66.41,0,0,0,33.3-8.42,69.32,69.32,0,0,0,24.08-22.33,58,58,0,0,0,10-29.57v-20A64.53,64.53,0,0,0,664,147.46a71.46,71.46,0,0,0-23.69-19.39,66.73,66.73,0,0,0-30.95-7.25,67.4,67.4,0,0,0-33.68,8.62,65.11,65.11,0,0,0-24.28,23.7Q542.37,168.22,542.37,188.19Z"/><path id="e-4" data-name="e" class="cls-2" d="M420.67,266.85q-22.73,0-40.74-10.37a76.37,76.37,0,0,1-28.39-28.2q-10.4-17.82-10.38-40.15a75.58,75.58,0,0,1,10.77-39.56,82.15,82.15,0,0,1,28.78-28.79A77.12,77.12,0,0,1,421.06,109q25.85,0,43.67,15.28t26.44,39.16L356.82,216.33l-3.91-10.19L479,156l-2.74,4.7a77.45,77.45,0,0,0-21.74-28.2q-14.3-11.74-34.27-11.75a63.08,63.08,0,0,0-33.29,9,67.59,67.59,0,0,0-23.69,24.09,65.83,65.83,0,0,0-8.82,33.88,69.35,69.35,0,0,0,8.23,33.09A66,66,0,0,0,386,245.9q15.08,9.6,35.06,9.6a64.9,64.9,0,0,0,24.87-4.9,75.72,75.72,0,0,0,21.34-13.12l7.05,9.79a91.36,91.36,0,0,1-24.48,14.1A78.69,78.69,0,0,1,420.67,266.85Z"/><rect id="i2" class="cls-2" x="265.83" y="113.32" width="13.32" height="150.79"/><path id="i-2" data-name="i" class="cls-2" d="M261.52,80.27A9.64,9.64,0,0,1,265,72.83a12,12,0,0,1,8.23-3.14,10.85,10.85,0,0,1,7.64,3.14,9.92,9.92,0,0,1,3.33,7.44,10.34,10.34,0,0,1-3.33,7.83,10.84,10.84,0,0,1-7.64,3.13A12,12,0,0,1,265,88.1,10,10,0,0,1,261.52,80.27Z"/><path id="D" class="cls-2" d="M110.62,266.85a75.3,75.3,0,0,1-66.78-38.38q-10.38-18-10.38-40.34,0-23.88,10.58-41.52a74.32,74.32,0,0,1,28.4-27.42,80.46,80.46,0,0,1,39.36-9.79,77.18,77.18,0,0,1,42.5,12.73q19.77,12.74,28.78,32.32l-2.74,6.65V0h13.32V264.11H180.34v-49l2.74,7.45q-9.39,19.59-29,31.92A80,80,0,0,1,110.62,266.85Zm2.75-11.35a66.85,66.85,0,0,0,57.18-30.95,63.05,63.05,0,0,0,9.79-31.72V176.38A64.2,64.2,0,0,0,167.81,148a71.11,71.11,0,0,0-23.7-20,65.52,65.52,0,0,0-30.74-7.25,67.52,67.52,0,0,0-33.49,8.42,64,64,0,0,0-24.09,23.5q-9,15.09-9,35.06a65.76,65.76,0,0,0,9,34.07,69.1,69.1,0,0,0,24.28,24.48A63.32,63.32,0,0,0,113.37,255.5Z"/></g></g></svg>