<svg xmlns="http://www.w3.org/2000/svg" viewBox="0 0 858.16 337.42"><defs><style>.cls-1{fill:#ff4d3a;}</style></defs><g id="Layer_2" data-name="Layer 2"><g id="Pegado"><path id="o" class="cls-1" d="M698.75,188.19a77.47,77.47,0,0,1,10.58-39.95,79.76,79.76,0,0,1,148.83,39.95,76.36,76.36,0,0,1-10.57,39.75A79.5,79.5,0,0,1,819,256.34q-18,10.57-40.74,10.58-22.32,0-40.34-10.19a76.84,76.84,0,0,1-28.59-27.81Q698.75,211.3,698.75,188.19Zm13.32,0q0,19.2,8.81,34.27a67,67,0,0,0,23.89,24.09,64,64,0,0,0,33.49,9,63,63,0,0,0,33.29-9,69.17,69.17,0,0,0,23.9-24.09q9-15.08,9-34.27a65.12,65.12,0,0,0-9-33.68A70.39,70.39,0,0,0,811.55,130a62,62,0,0,0-33.29-9.21,60.93,60.93,0,0,0-33.88,9.79,71.37,71.37,0,0,0-23.69,25.07A65.08,65.08,0,0,0,712.07,188.19Z"/><path id="g" class="cls-1" d="M571.82,337.42a94.42,94.42,0,0,1-22.52-2.74,87.81,87.81,0,0,1-22.72-9.4c-7.7-4.45-11.28-10.71-19.63-18.8l7.83-9c12,11.48,18.52,19,28.45,22.52s19.19,5.29,27.81,5.29q25.46,0,40-8c9.65-5.36,21-12.48,25-21.35a79.61,79.61,0,0,0,6.86-29.38l.39-51.7,3.52,3.53q-8.22,21.54-28.39,35.05a79.52,79.52,0,0,1-45.24,13.52,74,74,0,0,1-38.78-10.58,80.42,80.42,0,0,1-28.2-28.4,76.36,76.36,0,0,1-10.57-39.75q0-23.1,10.77-40.93a76,76,0,0,1,29-27.81,82.08,82.08,0,0,1,40.15-10A76.23,76.23,0,0,1,617,121.61q19.2,12.13,27.81,31.33l-1.95,6.27,1.95-38.39h11.36v146.1A80.12,80.12,0,0,1,648.73,301c-5,10.71-17.77,19.45-29.52,26.24S591.66,337.42,571.82,337.42ZM508.9,188.19a65.82,65.82,0,0,0,9,34.08,67.62,67.62,0,0,0,24.29,24.28,65,65,0,0,0,33.68,9,66.37,66.37,0,0,0,33.29-8.42,69.44,69.44,0,0,0,24.09-22.33,58.16,58.16,0,0,0,10-29.57v-20a64.77,64.77,0,0,0-12.73-27.81,71.5,71.5,0,0,0-23.7-19.39,69.89,69.89,0,0,0-64.62,1.37,65.14,65.14,0,0,0-24.29,23.7Q508.9,168.22,508.9,188.19Z"/><path id="e" class="cls-1" d="M387.2,266.85q-22.72,0-40.73-10.37a76.4,76.4,0,0,1-28.4-28.2q-10.38-17.82-10.38-40.15a75.67,75.67,0,0,1,10.77-39.56,82.26,82.26,0,0,1,28.79-28.79A77.11,77.11,0,0,1,387.59,109q25.86,0,43.67,15.28t26.44,39.16L323.36,216.33l-3.92-10.19L445.56,156l-2.74,4.7a77.56,77.56,0,0,0-21.74-28.2q-14.31-11.74-34.27-11.75a63.06,63.06,0,0,0-33.29,9,67.62,67.62,0,0,0-23.7,24.09A65.92,65.92,0,0,0,321,187.74a69.46,69.46,0,0,0,8.22,33.09,66,66,0,0,0,23.31,25.07q15.07,9.6,35,9.6a64.87,64.87,0,0,0,24.87-4.9,75.77,75.77,0,0,0,21.35-13.12l7.05,9.79a91.36,91.36,0,0,1-24.48,14.1A78.75,78.75,0,0,1,387.2,266.85Z"/><rect id="i2" class="cls-1" x="232.36" y="113.32" width="13.32" height="150.79"/><path id="i" class="cls-1" d="M228.05,80.27a9.65,9.65,0,0,1,3.53-7.44,12,12,0,0,1,8.22-3.14,10.84,10.84,0,0,1,7.64,3.14,9.88,9.88,0,0,1,3.33,7.44,10.31,10.31,0,0,1-3.33,7.83,10.83,10.83,0,0,1-7.64,3.13,12,12,0,0,1-8.22-3.13A10.05,10.05,0,0,1,228.05,80.27Z"/><path id="D" class="cls-1" d="M77.16,266.85a75.3,75.3,0,0,1-66.78-38.38Q0,210.46,0,188.13q0-23.88,10.57-41.52A74.46,74.46,0,0,1,39,119.19a80.46,80.46,0,0,1,39.36-9.79,77.16,77.16,0,0,1,42.5,12.73q19.77,12.74,28.79,32.32l-2.74,6.65V0h13.31V264.11H146.88v-49l2.74,7.45q-9.41,19.59-29,31.92A80,80,0,0,1,77.16,266.85ZM79.9,255.5a66.88,66.88,0,0,0,57.19-30.95,63.15,63.15,0,0,0,9.79-31.72V176.38A64.11,64.11,0,0,0,134.34,148a71.18,71.18,0,0,0-23.69-20,65.56,65.56,0,0,0-30.75-7.25,67.52,67.52,0,0,0-33.49,8.42,64,64,0,0,0-24.08,23.5q-9,15.09-9,35.06a65.76,65.76,0,0,0,9,34.07,69.1,69.1,0,0,0,24.28,24.48A63.28,63.28,0,0,0,79.9,255.5Z"/></g></g></svg>