<svg xmlns="http://www.w3.org/2000/svg" viewBox="0 0 75.81 75.81"><defs><style>.cls-1{fill:#f55;}</style></defs><title>logo</title><g id="Layer_2" data-name="Layer 2"><g id="Logo_Grueso_Editable_copy" data-name="Logo Grueso Editable copy"><path class="cls-1" d="M32.14,30a7.26,7.26,0,0,0-.86-3.5,8.64,8.64,0,0,0-2.37-2.75,11.71,11.71,0,0,0-3.47-1.82,13,13,0,0,0-4.09-.65c-3.92,0-7,1.29-9.07,3.84s-3.15,6-3.18,10.39h23Z"/><path class="cls-1" d="M39.84,23a9.55,9.55,0,0,0-2.49,1.37,7.88,7.88,0,0,0-2.23,2.74,8.65,8.65,0,0,0-.83,3.9V54.63H32.14V50.14a10.4,10.4,0,0,1-1,1.35,10.21,10.21,0,0,1-2.39,2,13.6,13.6,0,0,1-3.27,1.41,14.29,14.29,0,0,1-4.11.55c-4.56,0-8.16-1.53-10.72-4.54S6.8,43.33,6.8,37.34,8.09,26.79,10.63,23.8s6.17-4.55,10.72-4.55a14.65,14.65,0,0,1,4.11.55,14.2,14.2,0,0,1,3.27,1.41,10.16,10.16,0,0,1,2.4,2,14.34,14.34,0,0,1,1,1.35V.44a37.91,37.91,0,0,0,5.77,75.37c.65,0,1.29,0,1.93,0Z"/><path class="cls-1" d="M47,53.93v2A5.78,5.78,0,0,0,49.43,61,11.21,11.21,0,0,0,56,62.78a14.75,14.75,0,0,0,4.2-.59,10.47,10.47,0,0,0,3.46-1.71A8.45,8.45,0,0,0,66,57.66a8.34,8.34,0,0,0,.89-3.93V46.82h-9c-3.86,0-6.67.67-8.36,2A6.14,6.14,0,0,0,47,53.93Z"/><path class="cls-1" d="M9.09,39c0,4.48,1.07,8,3.19,10.62s5.15,3.84,9.07,3.84a12.93,12.93,0,0,0,4.09-.65A12.05,12.05,0,0,0,28.91,51a8.66,8.66,0,0,0,2.37-2.76,7.26,7.26,0,0,0,.86-3.5V37.52h-23Z"/><path class="cls-1" d="M66.89,61.68V59.51A12.58,12.58,0,0,1,63.44,63,13.13,13.13,0,0,1,56,64.8c-3.55,0-6.34-.85-8.3-2.53a9.18,9.18,0,0,1-3-7.34,11.9,11.9,0,0,1,.66-4,7.41,7.41,0,0,1,2.21-3.23,10.8,10.8,0,0,1,4-2.08,21.58,21.58,0,0,1,6.15-.76h9.12V40.29c0-3.35-.78-5.83-2.33-7.35s-3.87-2.3-6.92-2.3a11.8,11.8,0,0,0-6.12,1.45,9.53,9.53,0,0,0-3.76,4.67l-.15.35-1.89-.84.14-.34A12.59,12.59,0,0,1,50,30.6a12.89,12.89,0,0,1,7.61-2c3.79,0,6.67,1,8.56,3s2.85,4.82,2.85,8.51V59.52A37.91,37.91,0,0,0,37.91,0a36.11,36.11,0,0,0-3.62.18v25a12.32,12.32,0,0,1,1-1.39,9,9,0,0,1,2.16-1.94,10.61,10.61,0,0,1,3.08-1.33,16.2,16.2,0,0,1,4.18-.49h3.11v2.09H44.48a13.54,13.54,0,0,0-2.48.23v5.54a13.3,13.3,0,0,1,1-1.39,9,9,0,0,1,2.16-1.94,10.88,10.88,0,0,1,3.08-1.33,16.18,16.18,0,0,1,4.18-.48H55.5v2.08H52.19a13.89,13.89,0,0,0-3.88.55A10.15,10.15,0,0,0,45.06,27a7.88,7.88,0,0,0-2.23,2.74,8.65,8.65,0,0,0-.83,3.9V75.59A37.84,37.84,0,0,0,66.94,62.27,3.7,3.7,0,0,1,66.89,61.68Z"/></g></g></svg>