<svg xmlns="http://www.w3.org/2000/svg" viewBox="0 0 943.42 92.34"><defs><style>.cls-1{fill:#fff;}</style></defs><g id="Layer_2" data-name="Layer 2"><g id="Pegado"><path id="m" class="cls-1" d="M937.91,91.17V47.87q0-16-9.37-16a9.66,9.66,0,0,0-9.29,5.59q-2.85,5.6-2.84,16.49V91.17H910.9V47.87q0-8.09-2.29-12a7.6,7.6,0,0,0-7.09-3.95,9.62,9.62,0,0,0-9.2,5.74q-2.87,5.75-2.87,18.63V91.17h-5.56V27.6h4.68l.47,8.85h.53q3.81-10.08,12.95-10.08c3.52,0,6.29.93,8.32,2.81a16.12,16.12,0,0,1,4.39,8.2q2.29-5.85,5.63-8.43a13.8,13.8,0,0,1,8.67-2.58q7.22,0,10.55,5.53t3.34,17.73V91.17Z"/><path id="o" class="cls-1" d="M869.88,59.24q0,16-5.07,24.58t-14.5,8.52q-9.31,0-14.26-8.52t-5-24.58q0-32.88,19.46-32.87,9.13,0,14.24,8.61T869.88,59.24Zm-33,0q0,13.77,3.28,20.8t10.25,7q13.65,0,13.65-27.83,0-27.6-13.65-27.6-7.15,0-10.34,6.91T836.9,59.24Z"/><path id="o-2" data-name="o" class="cls-1" d="M820.08,59.24q0,16-5.07,24.58t-14.5,8.52q-9.32,0-14.27-8.52t-5-24.58q0-32.88,19.45-32.87,9.15,0,14.24,8.61T820.08,59.24Zm-33,0q0,13.77,3.28,20.8t10.26,7q13.65,0,13.65-27.83,0-27.6-13.65-27.6-7.15,0-10.35,6.91T787.09,59.24Z"/><path id="r" class="cls-1" d="M769.16,26.37a18.21,18.21,0,0,1,5.57.82l-1.35,5.56a11.28,11.28,0,0,0-4.34-.87c-2.14,0-4.15,1.1-6,3.31a23.72,23.72,0,0,0-4.37,9.22,50.78,50.78,0,0,0-1.58,13.07V91.17h-5.57V27.6h4.57l.59,11.13h.41Q761.54,26.37,769.16,26.37Z"/><path id="n" class="cls-1" d="M706.7,91.17V47.34q0-15.81-9.38-15.82-7.14,0-10.45,5.92t-3.31,18.81V91.17H678V27.6h4.69l.47,8.85h.52A16.59,16.59,0,0,1,689.41,29a13.76,13.76,0,0,1,8-2.63q7.38,0,11.08,4.95t3.69,15.91V91.17Z"/><path id="o-3" data-name="o" class="cls-1" d="M664,59.24q0,16-5.06,24.58t-14.51,8.52q-9.31,0-14.26-8.52t-5-24.58q0-32.88,19.46-32.87,9.14,0,14.24,8.61T664,59.24Zm-33,0Q631,73,634.28,80t10.25,7q13.65,0,13.65-27.83,0-27.6-13.65-27.6-7.15,0-10.34,6.91T631,59.24Z"/><path id="i" class="cls-1" d="M604.8,10a6.8,6.8,0,0,1,1.09-4.1,3.31,3.31,0,0,1,2.78-1.47,2.85,2.85,0,0,1,2.52,1.47,7.54,7.54,0,0,1,.94,4.1,7.41,7.41,0,0,1-.94,4,2.84,2.84,0,0,1-2.52,1.5,3.29,3.29,0,0,1-2.78-1.5A6.69,6.69,0,0,1,604.8,10Zm6.39,81.21h-5.57V27.6h5.57Z"/><path id="t" class="cls-1" d="M591,87.19a13.7,13.7,0,0,0,4.57-.71v4.69a16.12,16.12,0,0,1-6.62,1.17q-9.85,0-9.85-14.7V32.52h-5.74V29.24L579,27.6l1.82-15.12h3.87V27.6h10.08v4.92H584.65V76.05q0,6.45,1.4,8.79T591,87.19Z"/><path id="a" class="cls-1" d="M558,91.17l-.71-8.9h-.23q-4.57,10.07-13.83,10.07a12,12,0,0,1-10-5q-3.78-5-3.78-13.27,0-9.08,5.45-14.38T550.19,54l6.86-.35V48.34q0-8.91-2.23-13t-7.38-4.07a20.89,20.89,0,0,0-11.13,3.57l-2.4-4.39a26,26,0,0,1,13.88-4.1q7.86,0,11.31,4.95t3.46,16.55v43.3ZM544.45,87.6q6,0,9.29-5.89T557.05,65V58.42l-6.62.35q-7.68.4-11.4,4.25t-3.72,11.22q0,6.92,2.46,10.14A8,8,0,0,0,544.45,87.6Z"/><path id="e" class="cls-1" d="M504.37,92.34a17.29,17.29,0,0,1-15.49-8.58q-5.43-8.58-5.42-23.94,0-16.29,4.83-24.87t13.92-8.58q7.91,0,12.48,7.53t4.57,20.3v5.16H489.14q.12,13.88,3.93,20.8a12.36,12.36,0,0,0,11.54,6.91q6,0,12.6-3.93v5.4A23.84,23.84,0,0,1,504.37,92.34Zm-2.52-60.93q-11.48,0-12.59,22.91h24.43q0-10.5-3.19-16.7T501.85,31.41Z"/><path id="r-2" data-name="r" class="cls-1" d="M471.21,26.37a18.21,18.21,0,0,1,5.57.82l-1.35,5.56a11.28,11.28,0,0,0-4.34-.87q-3.22,0-6,3.31a23.72,23.72,0,0,0-4.37,9.22,50.78,50.78,0,0,0-1.58,13.07V91.17h-5.57V27.6h4.57l.59,11.13h.41Q463.6,26.37,471.21,26.37Z"/><path id="c" class="cls-1" d="M432.71,92.34a15.63,15.63,0,0,1-14.38-8.29q-4.83-8.28-4.83-24.34,0-16.29,4.89-24.82t14.44-8.52a20.14,20.14,0,0,1,9.85,2.17l-2.17,4.92a17.37,17.37,0,0,0-7.21-1.82q-14,0-14,28,0,27.72,14,27.71a25.19,25.19,0,0,0,9-1.87v4.69a17.27,17.27,0,0,1-4.74,1.64A24.41,24.41,0,0,1,432.71,92.34Z"/><path id="e-2" data-name="e" class="cls-1" d="M387.36,92.34a17.27,17.27,0,0,1-15.49-8.58q-5.43-8.58-5.42-23.94,0-16.29,4.83-24.87t13.92-8.58q7.91,0,12.48,7.53t4.57,20.3v5.16H372.13q.12,13.88,3.92,20.8a12.38,12.38,0,0,0,11.55,6.91q6,0,12.6-3.93v5.4A23.87,23.87,0,0,1,387.36,92.34Zm-2.52-60.93q-11.47,0-12.59,22.91h24.43q0-10.5-3.19-16.7T384.84,31.41Z"/><path id="r-3" data-name="r" class="cls-1" d="M354.2,26.37a18.21,18.21,0,0,1,5.57.82l-1.35,5.56a11.28,11.28,0,0,0-4.34-.87q-3.22,0-6,3.31a23.72,23.72,0,0,0-4.37,9.22,50.78,50.78,0,0,0-1.58,13.07V91.17h-5.57V27.6h4.57l.59,11.13h.41Q346.59,26.37,354.2,26.37Z"/><path id="r-4" data-name="r" class="cls-1" d="M298.89,26.37a18.14,18.14,0,0,1,5.56.82l-1.34,5.56a11.32,11.32,0,0,0-4.34-.87q-3.22,0-6,3.31a23.72,23.72,0,0,0-4.36,9.22,50.34,50.34,0,0,0-1.58,13.07V91.17h-5.57V27.6h4.57l.59,11.13h.41Q291.26,26.37,298.89,26.37Z"/><path id="e-3" data-name="e" class="cls-1" d="M252.25,92.34a17.29,17.29,0,0,1-15.5-8.58q-5.43-8.58-5.42-23.94,0-16.29,4.83-24.87t13.92-8.58q7.91,0,12.48,7.53t4.57,20.3v5.16H237q.12,13.88,3.93,20.8a12.37,12.37,0,0,0,11.54,6.91q6,0,12.6-3.93v5.4A23.81,23.81,0,0,1,252.25,92.34Zm-2.52-60.93q-11.49,0-12.6,22.91h24.43q0-10.5-3.19-16.7T249.73,31.41Z"/><path id="h" class="cls-1" d="M211.93,91.17V47.34q0-8.61-2.25-12.21t-7.36-3.61a11,11,0,0,0-10.13,6q-3.41,6-3.4,18.87v34.8h-5.57V0h5.57V29.59c0,2.7-.08,4.94-.24,6.74H189A15.64,15.64,0,0,1,194.68,29a13.72,13.72,0,0,1,7.88-2.6q8.08,0,11.48,5.27t3.4,15.7V91.17Z"/><path id="t-2" data-name="t" class="cls-1" d="M168.57,87.19a13.62,13.62,0,0,0,4.57-.71v4.69a16.06,16.06,0,0,1-6.62,1.17q-9.84,0-9.84-14.7V32.52h-5.74V29.24l5.62-1.64,1.82-15.12h3.87V27.6h10.07v4.92H162.25V76.05c0,4.3.46,7.23,1.4,8.79S166.23,87.19,168.57,87.19Z"/><path id="o-4" data-name="o" class="cls-1" d="M142.91,59.24q0,16-5.07,24.58t-14.5,8.52q-9.32,0-14.27-8.52t-4.95-24.58q0-32.88,19.45-32.87,9.15,0,14.24,8.61T142.91,59.24Zm-33,0q0,13.77,3.28,20.8t10.26,7q13.65,0,13.65-27.83,0-27.6-13.65-27.6-7.15,0-10.34,6.91T109.92,59.24Z"/><path id="n-2" data-name="n" class="cls-1" d="M84.84,91.17V47.34q0-15.81-9.37-15.82-7.16,0-10.46,5.92T61.7,56.25V91.17H56.13V27.6h4.69l.47,8.85h.53A16.53,16.53,0,0,1,67.56,29a13.74,13.74,0,0,1,8-2.63q7.38,0,11.07,4.95t3.69,15.91V91.17Z"/><path id="A-2" data-name="A" class="cls-1" d="M41.78,91.17,34.22,60.12H13.42L6,91.17H0L20.63,5.51h5.91l21.1,85.66ZM32.87,54.32,25.31,22.38Q24.14,17,23.5,12.19a94.71,94.71,0,0,1-1.64,10.19L14.53,54.32Z"/></g></g></svg>